<?xml version="1.0" encoding="UTF-8"?>
<svg width="754px" height="214px" viewBox="0 0 754 214" version="1.1" xmlns="http://www.w3.org/2000/svg" xmlns:xlink="http://www.w3.org/1999/xlink">
    <!-- Generator: Sketch 60.1 (88133) - https://sketch.com -->
    <title>logo</title>
    <g id="Page-1" stroke="none" stroke-width="1" fill="none" fill-rule="evenodd">
        <g id="logo" fill="#000000">
            <path d="M54.16,143 L54.16,140.855 C50.65,140.855 47.7575,139.295 45.4825,136.175 C43.2075,133.055 42.07,128.375 42.07,122.135 L42.07,122.135 L42.07,71.825 L85.555,71.825 L85.555,122.135 C85.555,128.505 84.45,133.2175 82.24,136.2725 C80.03,139.3275 77.105,140.855 73.465,140.855 L73.465,140.855 L73.465,143 L127.48,143 L127.48,140.66 L124.945,140.66 C121.305,140.14 118.5425,138.32 116.6575,135.2 C114.7725,132.08 113.83,127.66 113.83,121.94 L113.83,121.94 L113.83,23.465 C113.83,12.155 117.535,5.98 124.945,4.94 L124.945,4.94 L127.285,4.745 L127.285,2.6 L73.465,2.6 L73.465,4.745 C77.105,4.745 79.9975,6.2725 82.1425,9.3275 C84.2875,12.3825 85.36,17.095 85.36,23.465 L85.36,23.465 L85.36,65.585 L42.265,65.585 L42.265,23.465 C42.265,17.095 43.37,12.3825 45.58,9.3275 C47.79,6.2725 50.65,4.745 54.16,4.745 L54.16,4.745 L54.16,2.6 L0.145,2.6 L0.145,4.745 L2.68,4.94 C6.19,5.46 8.92,7.2475 10.87,10.3025 C12.82,13.3575 13.795,17.745 13.795,23.465 L13.795,23.465 L13.795,122.135 C13.795,133.445 10.09,139.62 2.68,140.66 L2.68,140.66 L0.145,140.855 L0.145,143 L54.16,143 Z M181.105,145.145 C191.895,145.145 200.995,142.025 208.405,135.785 C215.815,129.545 220.365,121.16 222.055,110.63 L222.055,110.63 L222.64,104.39 L220.495,104.195 L219.715,107.12 C216.075,118.3 211.07,124.475 204.7,125.645 C198.33,126.815 194.235,127.4 192.415,127.4 C184.225,127.4 177.4975,124.4425 172.2325,118.5275 C166.9675,112.6125 164.335,104.52 164.335,94.25 L164.335,94.25 L164.335,89.18 L222.64,89.18 L222.64,83.72 C222.64,71.5 218.87,61.555 211.33,53.885 C203.79,46.215 194.43,42.38 183.25,42.38 C179.74,42.38 175.71,42.8675 171.16,43.8425 C166.61,44.8175 161.3775,47.255 155.4625,51.155 C149.5475,55.055 144.9,60.45 141.52,67.34 C138.14,74.23 136.45,82.745 136.45,92.885 C136.45,93.925 136.4825,95.355 136.5475,97.175 C136.6125,98.995 136.905,103.155 137.425,109.655 C137.945,116.155 141.3575,123.0775 147.6625,130.4225 C153.9675,137.7675 160.4675,142.0575 167.1625,143.2925 C173.8575,144.5275 178.505,145.145 181.105,145.145 Z M196.315,84.5 L164.335,84.5 L164.53,78.845 C164.53,77.285 164.66,75.595 164.92,73.775 C165.18,71.955 165.6675,69.095 166.3825,65.195 C167.0975,61.295 167.975,57.98 169.015,55.25 C170.055,52.52 171.5825,50.115 173.5975,48.035 C175.6125,45.955 178.31,44.915 181.69,44.915 C183.64,44.915 185.4925,45.4025 187.2475,46.3775 C189.0025,47.3525 190.4325,48.6525 191.5375,50.2775 C192.6425,51.9025 193.52,54.1125 194.17,56.9075 C194.82,59.7025 195.275,61.945 195.535,63.635 C195.795,65.325 195.925,67.275 195.925,69.485 C195.925,70.135 196.055,71.24 196.315,72.8 L196.315,72.8 L196.315,84.5 Z M305.125,144.95 C317.215,144.95 323.845,139.1 325.015,127.4 L325.015,127.4 L325.21,123.89 L323.065,123.89 L323.065,124.67 L322.87,126.23 C322.74,128.05 322.4475,129.48 321.9925,130.52 C321.5375,131.56 320.9525,132.405 320.2375,133.055 C319.5225,133.705 318.58,134.03 317.41,134.03 C315.59,134.03 314.355,133.315 313.705,131.885 L313.705,131.885 L313.12,129.74 L312.73,126.23 L312.925,122.72 L312.925,72.41 C312.925,62.79 311.04,55.77 307.27,51.35 C303.5,46.93 299.015,44.395 293.815,43.745 C288.615,43.095 284.52,42.77 281.53,42.77 C272.69,42.77 265.0525,44.7525 258.6175,48.7175 C252.1825,52.6825 247.34,58.175 244.09,65.195 L244.09,65.195 L242.335,69.68 L244.09,69.875 C244.61,68.575 245.195,67.535 245.845,66.755 C246.495,65.975 248.0225,64.3175 250.4275,61.7825 C252.8325,59.2475 257.74,57.59 265.15,56.81 C271,56.81 275.7125,57.6225 279.2875,59.2475 C282.8625,60.8725 285.04,62.9525 285.82,65.4875 C286.6,68.0225 286.99,70.135 286.99,71.825 C286.99,75.855 284.26,78.975 278.8,81.185 C276.98,82.095 272.755,83.33 266.125,84.89 L266.125,84.89 L262.225,85.865 L254.62,87.815 C247.47,89.765 242.3675,93.0475 239.3125,97.6625 C236.2575,102.2775 234.73,108.94 234.73,117.65 C234.73,135.85 243.57,144.95 261.25,144.95 C271.65,144.95 279.58,140.92 285.04,132.86 L285.04,132.86 L286.99,129.545 C286.99,133.965 288.615,137.6375 291.865,140.5625 C295.115,143.4875 299.535,144.95 305.125,144.95 Z M274.315,135.005 C273.665,135.005 272.17,134.81 269.83,134.42 C267.49,134.03 265.54,132.8275 263.98,130.8125 C262.42,128.7975 261.64,125.515 261.64,120.965 L261.64,120.965 L261.25,114.335 L261.25,109.265 C261.25,101.335 261.9975,96.07 263.4925,93.47 C264.9875,90.87 268.4,88.465 273.73,86.255 L273.73,86.255 L278.995,84.11 L282.505,82.55 C284.065,81.9 285.495,80.99 286.795,79.82 L286.795,79.82 L286.795,119.405 C286.795,124.475 286.08,128.0825 284.65,130.2275 C283.22,132.3725 281.3025,133.705 278.8975,134.225 C276.4925,134.745 274.965,135.005 274.315,135.005 Z M367.72,144.95 C375.65,144.95 381.89,142.48 386.44,137.54 L386.44,137.54 L389.95,132.665 L389.95,143 L426.025,143 L426.025,140.855 C424.725,140.725 423.49,140.3675 422.32,139.7825 C421.15,139.1975 419.98,138.2875 418.81,137.0525 C417.64,135.8175 416.86,134.5175 416.47,133.1525 C416.08,131.7875 415.885,129.35 415.885,125.84 L415.885,125.84 L415.885,0.65 L399.31,3.77 C397.1,4.03 394.1425,4.4525 390.4375,5.0375 C386.7325,5.6225 383.125,5.915 379.615,5.915 L379.615,5.915 L379.615,8.06 L380.785,8.06 C384.035,8.45 386.2775,9.7175 387.5125,11.8625 C388.7475,14.0075 389.365,17.81 389.365,23.27 L389.365,23.27 L389.755,31.655 L389.755,49.4 L388.195,48.035 C384.035,44.525 378.965,42.77 372.985,42.77 C366.225,42.77 359.7575,44.785 353.5825,48.815 C347.4075,52.845 342.89,57.785 340.03,63.635 C337.17,69.485 335.2525,74.8475 334.2775,79.7225 C333.3025,84.5975 332.815,89.895 332.815,95.615 L332.815,95.615 L332.815,99.9472436 C332.835256,101.777415 333.225,105.890833 333.985,112.2875 C334.765,118.8525 337.495,125.385 342.175,131.885 C346.855,138.385 351.535,142.155 356.215,143.195 C360.895,144.235 363.755,144.7875 364.795,144.8525 C365.835,144.9175 366.81,144.95 367.72,144.95 Z M375.325,139.685 C371.555,139.685 368.37,137.7675 365.77,133.9325 C363.17,130.0975 361.545,125.45 360.895,119.99 C360.245,114.53 359.8875,111.0525 359.8225,109.5575 C359.763409,108.198409 359.731178,106.060393 359.725806,103.14345 L359.725806,100.602233 C359.733956,93.0350778 359.798667,86.8551667 359.92,82.0625 C360.05,76.9275 360.5375,71.3375 361.3825,65.2925 C362.2275,59.2475 363.7225,54.3725 365.8675,50.6675 C368.0125,46.9625 371.035,45.11 374.935,45.11 C375.715,45.11 378.38,45.565 382.93,46.475 C387.48,47.385 389.755,53.04 389.755,63.44 L389.755,63.44 L389.755,120.77 L389.56,123.305 C389.04,127.595 388.195,130.8125 387.025,132.9575 C385.855,135.1025 384.1325,136.76 381.8575,137.93 C379.5825,139.1 377.405,139.685 375.325,139.685 Z M478.675,143 L478.675,140.855 C475.165,140.465 472.37,138.58 470.29,135.2 C469.77,134.03 469.38,132.795 469.12,131.495 C468.86,130.195 468.73,128.31 468.73,125.84 L468.73,125.84 L468.73,0.65 C460.67,2.47 451.83,3.9 442.21,4.94 L442.21,4.94 L432.265,5.915 L432.265,8.06 L433.435,8.06 C436.815,8.45 439.1225,9.7175 440.3575,11.8625 C441.5925,14.0075 442.21,17.81 442.21,23.27 L442.21,23.27 L442.405,31.655 L442.405,125.84 C442.405,130.13 441.6575,133.6075 440.1625,136.2725 C438.6675,138.9375 436.1,140.465 432.46,140.855 L432.46,140.855 L432.46,143 L478.675,143 Z M533.275,145.145 C544.065,145.145 553.165,142.025 560.575,135.785 C567.985,129.545 572.535,121.16 574.225,110.63 L574.225,110.63 L574.81,104.39 L572.665,104.195 L571.885,107.12 C568.245,118.3 563.24,124.475 556.87,125.645 C550.5,126.815 546.405,127.4 544.585,127.4 C536.395,127.4 529.6675,124.4425 524.4025,118.5275 C519.1375,112.6125 516.505,104.52 516.505,94.25 L516.505,94.25 L516.505,89.18 L574.81,89.18 L574.81,83.72 C574.81,71.5 571.04,61.555 563.5,53.885 C555.96,46.215 546.6,42.38 535.42,42.38 C531.91,42.38 527.88,42.8675 523.33,43.8425 C518.78,44.8175 513.5475,47.255 507.6325,51.155 C501.7175,55.055 497.07,60.45 493.69,67.34 C490.31,74.23 488.62,82.745 488.62,92.885 C488.62,93.925 488.6525,95.355 488.7175,97.175 C488.7825,98.995 489.075,103.155 489.595,109.655 C490.115,116.155 493.5275,123.0775 499.8325,130.4225 C506.1375,137.7675 512.6375,142.0575 519.3325,143.2925 C526.0275,144.5275 530.675,145.145 533.275,145.145 Z M548.485,84.5 L516.505,84.5 L516.7,78.845 C516.7,77.285 516.83,75.595 517.09,73.775 C517.35,71.955 517.8375,69.095 518.5525,65.195 C519.2675,61.295 520.145,57.98 521.185,55.25 C522.225,52.52 523.7525,50.115 525.7675,48.035 C527.7825,45.955 530.48,44.915 533.86,44.915 C535.81,44.915 537.6625,45.4025 539.4175,46.3775 C541.1725,47.3525 542.6025,48.6525 543.7075,50.2775 C544.8125,51.9025 545.69,54.1125 546.34,56.9075 C546.99,59.7025 547.445,61.945 547.705,63.635 C547.965,65.325 548.095,67.275 548.095,69.485 C548.095,70.135 548.225,71.24 548.485,72.8 L548.485,72.8 L548.485,84.5 Z M625.315,145.145 C636.755,145.145 645.595,142.9025 651.835,138.4175 C658.075,133.9325 661.6175,129.3825 662.4625,124.7675 C663.3075,120.1525 663.8275,117.13 664.0225,115.7 C664.2175,114.27 664.315,112.97 664.315,111.8 C664.315,98.41 656.775,89.18 641.695,84.11 L641.695,84.11 L635.26,81.77 L632.53,80.99 C624.47,78.26 618.9775,75.5625 616.0525,72.8975 C613.1275,70.2325 611.665,66.625 611.665,62.075 C611.665,57.395 613.0625,53.5275 615.8575,50.4725 C618.6525,47.4175 622.195,45.89 626.485,45.89 C630.775,45.89 634.4475,47.6775 637.5025,51.2525 C640.5575,54.8275 642.67,60.32 643.84,67.73 L643.84,67.73 L644.425,70.85 L644.62,73.19 L648.91,70.85 C651.38,69.68 653.655,68.705 655.735,67.925 C657.815,67.145 659.765,66.495 661.585,65.975 L661.585,65.975 L660.61,62.855 C656.45,51.545 650.535,45.435 642.865,44.525 C635.195,43.615 630.58,43.03 629.02,42.77 L629.02,42.77 L625.9,42.77 C624.6,42.77 623.4625,42.8025 622.4875,42.8675 C621.5125,42.9325 618.6525,43.29 613.9075,43.94 C609.1625,44.59 604.4175,46.7025 599.6725,50.2775 C594.9275,53.8525 591.97,57.6875 590.8,61.7825 C589.63,65.8775 588.98,68.445 588.85,69.485 C588.72,70.525 588.655,71.89 588.655,73.58 C588.655,80.08 590.995,85.7025 595.675,90.4475 C600.355,95.1925 607.57,99.19 617.32,102.44 L617.32,102.44 L626.875,105.56 C637.925,109.85 643.45,115.7 643.45,123.11 C643.45,125.06 642.865,128.245 641.695,132.665 C640.525,137.085 638.12,139.685 634.48,140.465 C630.84,141.245 628.4675,141.7325 627.3625,141.9275 C626.2575,142.1225 625.25,142.22 624.34,142.22 C614.85,142.22 609,138.0925 606.79,129.8375 C604.58,121.5825 603.475,115.05 603.475,110.24 L603.475,110.24 L598.6,111.995 C597.17,112.385 595.3825,112.9375 593.2375,113.6525 C591.0925,114.3675 588.46,115.05 585.34,115.7 L585.34,115.7 L586.12,120.185 C590.54,136.825 603.605,145.145 625.315,145.145 Z M714.82,145.145 C726.26,145.145 735.1,142.9025 741.34,138.4175 C747.58,133.9325 751.1225,129.3825 751.9675,124.7675 C752.8125,120.1525 753.3325,117.13 753.5275,115.7 C753.7225,114.27 753.82,112.97 753.82,111.8 C753.82,98.41 746.28,89.18 731.2,84.11 L731.2,84.11 L724.765,81.77 L722.035,80.99 C713.975,78.26 708.4825,75.5625 705.5575,72.8975 C702.6325,70.2325 701.17,66.625 701.17,62.075 C701.17,57.395 702.5675,53.5275 705.3625,50.4725 C708.1575,47.4175 711.7,45.89 715.99,45.89 C720.28,45.89 723.9525,47.6775 727.0075,51.2525 C730.0625,54.8275 732.175,60.32 733.345,67.73 L733.345,67.73 L733.93,70.85 L734.125,73.19 L738.415,70.85 C740.885,69.68 743.16,68.705 745.24,67.925 C747.32,67.145 749.27,66.495 751.09,65.975 L751.09,65.975 L750.115,62.855 C745.955,51.545 740.04,45.435 732.37,44.525 C724.7,43.615 720.085,43.03 718.525,42.77 L718.525,42.77 L715.405,42.77 C714.105,42.77 712.9675,42.8025 711.9925,42.8675 C711.0175,42.9325 708.1575,43.29 703.4125,43.94 C698.6675,44.59 693.9225,46.7025 689.1775,50.2775 C684.4325,53.8525 681.475,57.6875 680.305,61.7825 C679.135,65.8775 678.485,68.445 678.355,69.485 C678.225,70.525 678.16,71.89 678.16,73.58 C678.16,80.08 680.5,85.7025 685.18,90.4475 C689.86,95.1925 697.075,99.19 706.825,102.44 L706.825,102.44 L716.38,105.56 C727.43,109.85 732.955,115.7 732.955,123.11 C732.955,125.06 732.37,128.245 731.2,132.665 C730.03,137.085 727.625,139.685 723.985,140.465 C720.345,141.245 717.9725,141.7325 716.8675,141.9275 C715.7625,142.1225 714.755,142.22 713.845,142.22 C704.355,142.22 698.505,138.0925 696.295,129.8375 C694.085,121.5825 692.98,115.05 692.98,110.24 L692.98,110.24 L688.105,111.995 C686.675,112.385 684.8875,112.9375 682.7425,113.6525 C680.5975,114.3675 677.965,115.05 674.845,115.7 L674.845,115.7 L675.625,120.185 C680.045,136.825 693.11,145.145 714.82,145.145 Z" id="Headless" fill-rule="nonzero"></path>
            <g id="Group-2" transform="translate(161.000000, 162.000000)">
                <path d="M95.9464021,51.4752 C99.1848021,51.4752 101.983202,50.78 104.341602,49.3896 C106.700002,47.9991999 108.372002,46.0719999 109.357602,43.6079998 L109.357602,43.6079998 L101.596002,39.6479998 C100.293602,42.2175998 98.3928021,43.5023998 95.8936021,43.5023998 C94.098402,43.5023998 92.611202,42.8951998 91.432002,41.6807998 C90.252802,40.4663998 89.6632019,38.7855997 89.6632019,36.6383997 C89.6632019,34.5263996 90.252802,32.8719996 91.432002,31.6751996 C92.611202,30.4783996 94.098402,29.8799995 95.8936021,29.8799995 C98.3928021,29.8799995 100.293602,31.1647996 101.596002,33.7343996 L101.596002,33.7343996 L109.357602,29.7743995 C108.372002,27.3103995 106.700002,25.3831994 104.341602,23.9927994 C101.983202,22.6023994 99.1848021,21.9071994 95.9464021,21.9071994 C92.778402,21.9071994 89.9448019,22.5319994 87.4456019,23.7815994 C84.9464018,25.0311994 83.0016018,26.7735995 81.6112018,29.0087995 C80.2208017,31.2439996 79.5256017,33.7871996 79.5256017,36.6383997 C79.5256017,39.4895998 80.2208017,42.0415998 81.6112018,44.2943999 C83.0016018,46.5471999 84.9464018,48.3071999 87.4456019,49.5744 C89.9448019,50.8416 92.778402,51.4752 95.9464021,51.4752 Z M123.191203,51 L123.191203,37.8527997 C123.191203,35.4591997 123.798403,33.6815996 125.012803,32.5199996 C126.227203,31.3583996 127.908003,30.7775996 130.055203,30.7775996 C130.653603,30.7775996 131.410403,30.8303996 132.325603,30.9359996 L132.325603,30.9359996 L132.325603,21.9071994 C130.213603,21.9071994 128.339203,22.2327994 126.702403,22.8839994 C125.065603,23.5351994 123.736803,24.5119994 122.716003,25.8143995 L122.716003,25.8143995 L122.716003,22.3823994 L113.159202,22.3823994 L113.159202,51 L123.191203,51 Z M145.261603,51.4752 C149.450403,51.4752 152.266403,50.0848 153.709603,47.3039999 L153.709603,47.3039999 L153.709603,51 L163.055204,51 L163.055204,35.1071997 C163.055204,30.6367996 161.805604,27.3191995 159.306403,25.1543994 C156.807203,22.9895994 153.181603,21.9071994 148.429603,21.9071994 C146.141603,21.9071994 143.862403,22.1975994 141.592003,22.7783994 C139.321603,23.3591994 137.394403,24.1775994 135.810403,25.2335994 L135.810403,25.2335994 L139.189603,32.0447996 C140.175203,31.2703996 141.372003,30.6631996 142.780003,30.2231995 C144.188003,29.7831995 145.578403,29.5631995 146.951203,29.5631995 C150.823203,29.5631995 152.847203,31.0767996 153.023203,34.1039996 L153.023203,34.1039996 L147.320803,34.1039996 C142.991203,34.1039996 139.788003,34.8519997 137.711203,36.3479997 C135.634403,37.8439997 134.596003,39.9471998 134.596003,42.6575998 C134.596003,44.3471999 135.009603,45.8519999 135.836803,47.1719999 C136.664003,48.4919999 137.887203,49.5392 139.506403,50.3136 C141.125603,51.088 143.044003,51.4752 145.261603,51.4752 Z M148.060003,45.1391999 C146.898403,45.1391999 145.983203,44.8751999 145.314403,44.3471999 C144.645603,43.8191998 144.311203,43.1151998 144.311203,42.2351998 C144.311203,40.2991998 145.772003,39.3311997 148.693603,39.3311997 L148.693603,39.3311997 L153.023203,39.3311997 L153.023203,41.8127998 C152.636003,42.9039998 152.002403,43.7311998 151.122403,44.2943999 C150.242403,44.8575999 149.221603,45.1391999 148.060003,45.1391999 Z M180.584804,51 L180.584804,30.9359996 L187.132004,30.9359996 L187.132004,23.4383994 L180.320804,23.4383994 L180.320804,22.8047994 C180.320804,21.5727994 180.611204,20.6399993 181.192004,20.0063993 C181.772804,19.3727993 182.591204,19.0559993 183.647204,19.0559993 C184.668004,19.0559993 185.671204,19.3375993 186.656804,19.9007993 L186.656804,19.9007993 L189.138404,12.8255992 C188.364004,12.3327992 187.378404,11.9631992 186.181604,11.7167991 C184.984804,11.4703991 183.752804,11.3471991 182.485604,11.3471991 C178.719204,11.3471991 175.788804,12.3679992 173.694404,14.4095992 C171.600004,16.4511993 170.552804,19.2143993 170.552804,22.6991994 L170.552804,22.6991994 L170.552804,23.4383994 L166.381604,23.4383994 L166.381604,30.9359996 L170.552804,30.9359996 L170.552804,51 L180.584804,51 Z M203.605604,51.4752 C204.978404,51.4752 206.272004,51.3344 207.486404,51.0528 C208.700805,50.7712 209.730405,50.3664 210.575205,49.8384 L210.575205,49.8384 L208.093605,42.8159998 C207.213604,43.4143998 206.192804,43.7135998 205.031204,43.7135998 C204.116004,43.7135998 203.385604,43.4231998 202.840004,42.8423998 C202.294404,42.2615998 202.021604,41.4607998 202.021604,40.4399998 L202.021604,40.4399998 L202.021604,30.9359996 L208.568805,30.9359996 L208.568805,23.4383994 L202.021604,23.4383994 L202.021604,15.9935992 L191.989604,15.9935992 L191.989604,23.4383994 L187.818404,23.4383994 L187.818404,30.9359996 L191.989604,30.9359996 L191.989604,40.5455998 C191.989604,44.1711999 192.992804,46.8991999 194.999204,48.7296 C197.005604,50.56 199.874404,51.4752 203.605604,51.4752 Z M247.799205,51.4752 C250.404005,51.4752 252.771205,50.868 254.900806,49.6536 C257.030406,48.4391999 258.720006,46.7055999 259.969606,44.4527999 C261.219206,42.1999998 261.844006,39.5951998 261.844006,36.6383997 C261.844006,33.6815996 261.219206,31.0855996 259.969606,28.8503995 C258.720006,26.6151995 257.030406,24.8991994 254.900806,23.7023994 C252.771205,22.5055994 250.404005,21.9071994 247.799205,21.9071994 C244.420005,21.9071994 241.762405,22.8927994 239.826405,24.8639994 L239.826405,24.8639994 L239.826405,11.8223992 L229.794405,11.8223992 L229.794405,51 L239.351205,51 L239.351205,48.1487999 C241.216805,50.3664 244.032805,51.4752 247.799205,51.4752 Z M245.687205,43.5023998 C243.927205,43.5023998 242.484005,42.8951998 241.357605,41.6807998 C240.231205,40.4663998 239.668005,38.7855997 239.668005,36.6383997 C239.668005,34.5263996 240.231205,32.8719996 241.357605,31.6751996 C242.484005,30.4783996 243.927205,29.8799995 245.687205,29.8799995 C247.447205,29.8799995 248.890405,30.4783996 250.016805,31.6751996 C251.143205,32.8719996 251.706405,34.5263996 251.706405,36.6383997 C251.706405,38.7855997 251.143205,40.4663998 250.016805,41.6807998 C248.890405,42.8951998 247.447205,43.5023998 245.687205,43.5023998 Z M281.485606,51.4752 C286.836006,51.4752 290.901606,49.9264 293.682406,46.8287999 L293.682406,46.8287999 L288.402406,41.3375998 C287.381606,42.2175998 286.369606,42.8511998 285.366406,43.2383998 C284.363206,43.6255998 283.175206,43.8191998 281.802406,43.8191998 C279.972006,43.8191998 278.449606,43.4231998 277.235206,42.6311998 C276.020806,41.8391998 275.202406,40.7039998 274.780006,39.2255997 L274.780006,39.2255997 L295.583206,39.2255997 C295.688806,37.6415997 295.741606,36.8143997 295.741606,36.7439997 C295.741606,33.6815996 295.064006,31.0327996 293.708806,28.7975995 C292.353606,26.5623995 290.514406,24.8551994 288.191206,23.6759994 C285.868006,22.4967994 283.280806,21.9071994 280.429606,21.9071994 C277.437606,21.9071994 274.744806,22.5407994 272.351206,23.8079994 C269.957606,25.0751994 268.083206,26.8263995 266.728006,29.0615995 C265.372806,31.2967996 264.695206,33.8223996 264.695206,36.6383997 C264.695206,39.4895998 265.390406,42.0415998 266.780806,44.2943999 C268.171206,46.5471999 270.133606,48.3071999 272.668006,49.5744 C275.202406,50.8416 278.141606,51.4752 281.485606,51.4752 Z M286.343206,33.9455996 L274.621606,33.9455996 C274.903206,32.4319996 275.563206,31.2351996 276.601606,30.3551996 C277.640006,29.4751995 278.933606,29.0351995 280.482406,29.0351995 C282.031206,29.0351995 283.324806,29.4751995 284.363206,30.3551996 C285.401606,31.2351996 286.061606,32.4319996 286.343206,33.9455996 L286.343206,33.9455996 Z M315.383207,51.4752 C320.733607,51.4752 324.799207,49.9264 327.580007,46.8287999 L327.580007,46.8287999 L322.300007,41.3375998 C321.279207,42.2175998 320.267207,42.8511998 319.264007,43.2383998 C318.260807,43.6255998 317.072807,43.8191998 315.700007,43.8191998 C313.869607,43.8191998 312.347207,43.4231998 311.132807,42.6311998 C309.918407,41.8391998 309.100007,40.7039998 308.677607,39.2255997 L308.677607,39.2255997 L329.480807,39.2255997 C329.586407,37.6415997 329.639207,36.8143997 329.639207,36.7439997 C329.639207,33.6815996 328.961607,31.0327996 327.606407,28.7975995 C326.251207,26.5623995 324.412007,24.8551994 322.088807,23.6759994 C319.765607,22.4967994 317.178407,21.9071994 314.327207,21.9071994 C311.335207,21.9071994 308.642407,22.5407994 306.248807,23.8079994 C303.855207,25.0751994 301.980807,26.8263995 300.625607,29.0615995 C299.270406,31.2967996 298.592806,33.8223996 298.592806,36.6383997 C298.592806,39.4895998 299.288006,42.0415998 300.678407,44.2943999 C302.068807,46.5471999 304.031207,48.3071999 306.565607,49.5744 C309.100007,50.8416 312.039207,51.4752 315.383207,51.4752 Z M320.240807,33.9455996 L308.519207,33.9455996 C308.800807,32.4319996 309.460807,31.2351996 310.499207,30.3551996 C311.537607,29.4751995 312.831207,29.0351995 314.380007,29.0351995 C315.928807,29.0351995 317.222407,29.4751995 318.260807,30.3551996 C319.299207,31.2351996 319.959207,32.4319996 320.240807,33.9455996 L320.240807,33.9455996 Z M344.317607,51 L344.317607,37.8527997 C344.317607,35.4591997 344.924807,33.6815996 346.139208,32.5199996 C347.353608,31.3583996 349.034408,30.7775996 351.181608,30.7775996 C351.780008,30.7775996 352.536808,30.8303996 353.452008,30.9359996 L353.452008,30.9359996 L353.452008,21.9071994 C351.340008,21.9071994 349.465608,22.2327994 347.828808,22.8839994 C346.192008,23.5351994 344.863207,24.5119994 343.842407,25.8143995 L343.842407,25.8143995 L343.842407,22.3823994 L334.285607,22.3823994 L334.285607,51 L344.317607,51 Z" id="craftbeer" fill-rule="nonzero"></path>
                <polygon id="Star" points="381.700008 42.9000009 373.941243 46.9790253 375.423035 38.339513 369.146062 32.2209764 377.820626 30.9604885 381.700008 23.1000005 385.579391 30.9604885 394.253955 32.2209764 387.976981 38.339513 389.458774 46.9790253"></polygon>
                <polygon id="Star-Copy-2" points="419.100009 42.9000009 411.341244 46.9790253 412.823036 38.339513 406.546063 32.2209764 415.220626 30.9604885 419.100009 23.1000005 422.979392 30.9604885 431.653955 32.2209764 425.376982 38.339513 426.858775 46.9790253"></polygon>
                <polygon id="Star-Copy-3" points="13.2000003 42.9000009 5.44123479 46.9790253 6.92302714 38.339513 0.646053999 32.2209764 9.32061754 30.9604885 13.2000003 23.1000005 17.079383 30.9604885 25.7539466 32.2209764 19.4769734 38.339513 20.9587658 46.9790253"></polygon>
                <polygon id="Star-Copy" points="50.6000011 42.9000009 42.8412356 46.9790253 44.323028 38.339513 38.0460548 32.2209764 46.7206183 30.9604885 50.6000011 23.1000005 54.4793838 30.9604885 63.1539474 32.2209764 56.8769742 38.339513 58.3587666 46.9790253"></polygon>
            </g>
        </g>
    </g>
</svg>